<svg height="512pt" viewBox="-53 0 512 512" width="512pt" xmlns="http://www.w3.org/2000/svg"><path d="m406.058594 396v116h-406.058594v-116c0-71.179688 56.738281-129.089844 127.460938-130.980469 1.179687-.03125 2.378906-.050781 3.570312-.050781h144c1.1875 0 2.390625.019531 3.570312.050781 70.71875 1.890625 127.457032 59.800781 127.457032 130.980469zm0 0" fill="#ffd9a7"/><path d="m406.058594 396v116h-203.027344v-247.03125h72c72.367188 0 131.027344 58.660156 131.027344 131.03125zm0 0" fill="#ffc273"/><path d="m406.058594 396v32.921875h-99.019532v83.078125h-208.019531v-83.078125h-99.019531v-32.921875c0-49.738281 27.710938-93 68.53125-115.191406 9.367188-5.089844 19.429688-9.078125 30-11.769532 10.390625-2.660156 21.277344-4.070312 32.5-4.070312h144c72.367188 0 131.027344 58.660156 131.027344 131.03125zm0 0" fill="#0086ff"/><path d="m406.058594 396v32.921875h-99.019532v83.078125h-104.007812v-247.03125h72c11.128906 0 21.9375 1.390625 32.25 4.011719 10.570312 2.667969 20.628906 6.628906 30 11.699219 40.957031 22.140624 68.777344 65.480468 68.777344 115.320312zm0 0" fill="#4b5be3"/><path d="m278.601562 265.019531v38.582031c0 43.597657-33.902343 79.070313-75.570312 79.070313-41.671875 0-75.570312-35.472656-75.570312-79.070313v-38.582031c1.179687-.03125 2.378906-.050781 3.570312-.050781h144c1.1875 0 2.390625.019531 3.570312.050781zm0 0" fill="#ffc273"/><path d="m98.53125 269.039062v159.929688h-30v-148.160156c9.367188-5.089844 19.429688-9.078125 30-11.769532zm0 0" fill="#dfe3f8"/><path d="m178.109375 378.25v133.75h-30v-154.148438c8.210937 9.109376 18.480469 16.179688 30 20.398438zm0 0" fill="#dfe3f8"/><path d="m257.699219 358.128906v153.871094h-30v-133.660156c11.511719-4.160156 21.761719-11.167969 30-20.210938zm0 0" fill="#c3c9f6"/><path d="m337.28125 280.679688v148.289062h-30v-159.988281c10.570312 2.667969 20.628906 6.628906 30 11.699219zm0 0" fill="#c3c9f6"/><path d="m278.601562 265.019531v38.582031c0 43.597657-33.902343 79.070313-75.570312 79.070313v-117.703125h72c1.1875 0 2.390625.019531 3.570312.050781zm0 0" fill="#ffb64f"/><path d="m349.714844 174.394531c0 20.449219-13.792969 37.753907-32.558594 43.082031-4.933594 24.085938-17.417969 46.074219-35.847656 62.808594-21.46875 19.488282-49.269532 30.214844-78.277344 30.214844s-56.808594-10.726562-78.277344-30.214844c-18.429687-16.734375-30.914062-38.722656-35.851562-62.808594-18.761719-5.328124-32.558594-22.632812-32.558594-43.082031 0-19.585937 12.640625-36.277343 30.195312-42.335937v-15.566406c0-64.222657 52.246094-116.492188 116.492188-116.492188 64.242188 0 116.488281 52.269531 116.488281 116.492188v15.566406c17.554688 6.058594 30.195313 22.75 30.195313 42.335937zm0 0" fill="#ffd9a7"/><path d="m349.714844 174.386719c0 20.457031-13.792969 37.761719-32.558594 43.09375-4.9375 24.082031-17.417969 46.066406-35.851562 62.804687-21.46875 19.484375-49.269532 30.214844-78.273438 30.214844v-310.5c64.238281 0 116.492188 52.265625 116.492188 116.492188v15.5625c17.554687 6.0625 30.191406 22.753906 30.191406 42.332031zm0 0" fill="#ffc273"/><path d="m319.519531 116.492188v14.878906l-51.425781-27.761719c-11.796875 7.53125-34.359375 18.628906-65 18.628906h-.0625c-30.75-.011719-53.738281-11.203125-65.648438-18.691406l-50.84375 27.4375v-14.496094c0-64.21875 52.246094-116.488281 116.492188-116.488281 64.242188 0 116.488281 52.269531 116.488281 116.492188zm0 0" fill="#57555c"/><path d="m319.519531 116.492188v14.878906l-51.425781-27.761719c-11.796875 7.53125-34.359375 18.628906-65 18.628906h-.0625v-122.238281c64.242188 0 116.488281 52.269531 116.488281 116.492188zm0 0" fill="#2a2a2c"/></svg>